<svg version="1.1" viewBox="0.0 0.0 64.0 64.0" fill="none" stroke="none" stroke-linecap="square" stroke-miterlimit="10" xmlns:xlink="http://www.w3.org/1999/xlink" xmlns="http://www.w3.org/2000/svg"><clipPath id="p.0"><path d="m0 0l64.0 0l0 64.0l-64.0 0l0 -64.0z" clip-rule="nonzero"/></clipPath><g clip-path="url(#p.0)"><path fill="#000000" fill-opacity="0.0" d="m0 0l64.0 0l0 64.0l-64.0 0z" fill-rule="evenodd"/><path fill="#0096cd" d="m8.0 21.44016l0 0c0 -4.4183674 3.5817938 -8.000161 8.00016 -8.000161l31.99968 0l0 0c2.1217728 0 4.1566467 0.84287167 5.656967 2.343193c1.5003204 1.5003214 2.343193 3.5351934 2.343193 5.656968l0 31.999678c0 4.4183693 -3.5817947 8.00016 -8.00016 8.00016l-31.99968 0c-4.4183664 0 -8.00016 -3.581791 -8.00016 -8.00016z" fill-rule="evenodd"/><path stroke="#0096cd" stroke-width="4.0" stroke-linejoin="round" stroke-linecap="butt" d="m8.0 21.44016l0 0c0 -4.4183674 3.5817938 -8.000161 8.00016 -8.000161l31.99968 0l0 0c2.1217728 0 4.1566467 0.84287167 5.656967 2.343193c1.5003204 1.5003214 2.343193 3.5351934 2.343193 5.656968l0 31.999678c0 4.4183693 -3.5817947 8.00016 -8.00016 8.00016l-31.99968 0c-4.4183664 0 -8.00016 -3.581791 -8.00016 -8.00016z" fill-rule="evenodd"/><path fill="#000000" fill-opacity="0.0" d="m19.527878 13.798986l0 0c-0.031946182 -4.1281157 2.326971 -7.956878 6.1844673 -10.0380125c3.8574963 -2.0811343 8.624603 -2.0968914 12.498104 -0.041310787c3.8735046 2.0555809 6.2619934 5.8686523 6.2619934 9.996873l-12.472443 0z" fill-rule="evenodd"/><path fill="#000000" fill-opacity="0.0" d="m19.527878 13.798986l0 0c-0.031946182 -4.1281157 2.326971 -7.956878 6.1844673 -10.0380125c3.8574963 -2.0811343 8.624603 -2.0968914 12.498104 -0.041310787c3.8735046 2.0555809 6.2619934 5.8686523 6.2619934 9.996873" fill-rule="evenodd"/><path stroke="#0096cd" stroke-width="3.0" stroke-linejoin="round" stroke-linecap="butt" d="m19.527878 13.798986l0 0c-0.031946182 -4.1281157 2.326971 -7.956878 6.1844673 -10.0380125c3.8574963 -2.0811343 8.624603 -2.0968914 12.498104 -0.041310787c3.8735046 2.0555809 6.2619934 5.8686523 6.2619934 9.996873" fill-rule="evenodd"/><path fill="#ffffff" d="m26.236221 31.007874l0 0c0 -3.1832466 2.580532 -5.7637787 5.7637787 -5.7637787l0 0c1.5286484 0 2.99469 0.607254 4.0756073 1.6881714c1.0809174 1.0809193 1.6881714 2.546959 1.6881714 4.0756073l0 0c0 3.1832466 -2.580532 5.7637787 -5.7637787 5.7637787l0 0c-3.1832466 0 -5.7637787 -2.580532 -5.7637787 -5.7637787z" fill-rule="evenodd"/><path fill="#ffffff" d="m27.19685 49.53806l2.401575 -13.448822l4.8031483 0l2.401577 13.448822z" fill-rule="evenodd"/></g></svg>